<svg xmlns="http://www.w3.org/2000/svg" xmlns:xlink="http://www.w3.org/1999/xlink" version="1.1" x="0px" y="0px" viewBox="0 0 100 100" enable-background="new 0 0 100 100" xml:space="preserve" width="100" height="100">
  <path d="M76.994,43.96l-0.008,0c-0.067-0.988-0.882-1.77-1.886-1.77c-1.049,0-1.899,0.85-1.899,1.898  c0,0.044,0.011,0.085,0.014,0.129l-0.009,0c0.171,2.505-0.661,4.974-2.261,6.859c-0.872-0.562-1.836-0.979-2.854-1.23  c-1.619-0.389-3.313-0.349-4.903,0.116l0.002,0.008c-0.788,0.231-1.368,0.951-1.368,1.814c0,1.049,0.85,1.899,1.898,1.899  c0.186,0,0.361-0.035,0.531-0.085l0.002,0.008c0.955-0.278,1.976-0.302,2.938-0.071c0.964,0.238,1.852,0.731,2.571,1.426  c0.715,0.69,1.241,1.563,1.518,2.517c0.276,0.972,0.294,1.998,0.053,2.97l0.006,0.002c-0.037,0.146-0.062,0.298-0.062,0.456  c0,1.049,0.85,1.898,1.898,1.898c0.89,0,1.632-0.615,1.837-1.441l0.006,0.001c0.005-0.021,0.008-0.041,0.013-0.063  c0.002-0.008,0.004-0.016,0.006-0.024c0.378-1.587,0.345-3.257-0.106-4.847c-0.28-0.964-0.712-1.872-1.269-2.694  C76.009,51.079,77.239,47.546,76.994,43.96z"></path>
  <path d="M41.176,49.491l0.002-0.005c-0.02-0.009-0.04-0.017-0.06-0.025c-0.008-0.004-0.016-0.007-0.024-0.011  c-3.502-1.626-7.464-1.645-10.933-0.114c-0.611-0.785-1.343-1.476-2.174-2.038c-1.382-0.928-2.988-1.481-4.646-1.599l0,0.009  c-0.045-0.003-0.088-0.014-0.134-0.014c-1.048,0-1.898,0.85-1.898,1.899c0,1.002,0.78,1.815,1.764,1.885l0,0.008  c0.998,0.071,1.965,0.404,2.792,0.96c0.826,0.56,1.495,1.331,1.934,2.231c0.439,0.901,0.635,1.9,0.565,2.886  c-0.074,0.998-0.408,1.966-0.967,2.796c0,0,0,0,0,0c0,0.001,0,0.001,0,0.001c-0.204,0.304-0.324,0.668-0.324,1.061  c0,1.049,0.851,1.898,1.899,1.898c0.655,0,1.233-0.332,1.575-0.838c0.928-1.377,1.483-2.981,1.606-4.645  c0.074-1.04-0.028-2.085-0.294-3.091c2.446-1.009,5.279-0.969,7.699,0.174l0.002-0.005c0.246,0.116,0.519,0.187,0.809,0.187  c1.048,0,1.898-0.85,1.898-1.898C42.266,50.444,41.818,49.795,41.176,49.491z"></path>
  <path d="M90.252,54.747c0-3.76-0.987-7.431-2.861-10.664c0.009-0.243,0.014-0.487,0.014-0.73c0-7.386-4.086-13.964-10.556-17.25  c0.072-0.574,0.113-1.154,0.113-1.737c0-4.923-2.582-9.371-6.795-11.815C68.141,8.001,63.579,5,58.544,5  C54.811,5,51.869,6.526,50,9.243C48.131,6.526,45.189,5,41.456,5c-5.035,0-9.597,3.001-11.623,7.551  c-4.213,2.445-6.794,6.892-6.794,11.815c0,0.583,0.041,1.163,0.113,1.737c-6.469,3.286-10.556,9.864-10.556,17.25  c0,0.243,0.004,0.487,0.014,0.73c-1.875,3.232-2.862,6.903-2.862,10.663c0,5.134,1.816,10.001,5.134,13.856  c-0.255,1.053-0.388,2.135-0.388,3.232c0,4.927,2.67,9.45,6.892,11.864C22.736,90.225,29.481,95,37.659,95  c5.438,0,9.836-2.244,12.341-5.926C52.505,92.756,56.904,95,62.342,95c8.177,0,14.922-4.775,16.272-11.3  c4.222-2.414,6.892-6.938,6.892-11.864c0-1.098-0.132-2.18-0.388-3.232C88.437,64.748,90.252,59.881,90.252,54.747z M47.722,81.329  c0,5.537-3.95,9.114-10.063,9.114c-6.234,0-11.475-3.71-11.93-8.446h0c-0.004-0.037-0.01-0.074-0.016-0.112  c0.199-4.371,2.266-8.784,7.578-8.784c3.141,0,5.696,2.555,5.696,5.695c0,1.049,0.85,1.899,1.899,1.899s1.899-0.851,1.899-1.899  c0-3.102-1.496-5.861-3.804-7.595c2.308-1.733,3.804-4.492,3.804-7.595c0-1.049-0.85-1.898-1.899-1.898s-1.899,0.85-1.899,1.898  c0,3.142-2.555,5.696-5.696,5.696c-5.66,0-9.774,3.687-11.007,9.491c-2.014-1.706-3.232-4.24-3.232-6.958  c0-1.024,0.17-2.027,0.501-2.982c0.102-0.258,0.159-0.539,0.159-0.833c0-0.635-0.26-1.209-0.68-1.622  c-3.048-3.136-4.727-7.271-4.727-11.651c0-3.152,0.881-6.222,2.549-8.879l-0.002-0.001c0.221-0.351,0.351-0.765,0.351-1.21  c0-0.057-0.004-0.114-0.009-0.17h0.001c-0.028-0.374-0.042-0.755-0.042-1.133c0-5.721,3.205-10.809,8.263-13.288  c1.569,2.292,3.908,3.754,7.077,4.429c-0.084,0.897-0.046,1.807,0.126,2.699c0.32,1.636,1.065,3.163,2.155,4.417l0.006-0.005  c0.348,0.4,0.855,0.659,1.427,0.659c1.048,0,1.898-0.85,1.898-1.898c0-0.477-0.182-0.907-0.472-1.24l0.006-0.005  c-0.654-0.752-1.102-1.671-1.293-2.651c-0.189-0.979-0.117-1.997,0.209-2.942c0.327-0.949,0.896-1.795,1.643-2.443  c0.756-0.653,1.676-1.1,2.661-1.292l0-0.001c0.875-0.17,1.535-0.938,1.535-1.862c0-1.049-0.85-1.899-1.899-1.899  c-0.125,0-0.246,0.014-0.364,0.037l0-0.001c-0.004,0.001-0.007,0.002-0.011,0.002c-0.006,0.001-0.012,0.003-0.019,0.004  c-1.621,0.322-3.137,1.061-4.389,2.142c-0.857,0.746-1.569,1.644-2.11,2.641c-2.88-0.524-4.616-1.768-5.657-3.999  c-0.014-0.052-0.028-0.103-0.045-0.153c-0.2-0.757-0.304-1.541-0.304-2.334c0-3.486,1.941-6.616,5.065-8.167l-0.003-0.005  c0.518-0.26,0.922-0.712,1.121-1.263l0,0c1.167-3.215,4.252-5.375,7.677-5.375c5.452,0,6.266,5.115,6.266,8.165V81.329z   M80.969,66.398c-0.42,0.413-0.68,0.987-0.68,1.622c0,0.294,0.057,0.575,0.159,0.833c0.33,0.955,0.501,1.958,0.501,2.982  c0,2.718-1.219,5.252-3.232,6.958c-1.232-5.804-5.347-9.491-11.007-9.491c-3.141,0-5.696-2.555-5.696-5.696  c0-1.049-0.85-1.898-1.898-1.898s-1.898,0.85-1.898,1.898c0,3.103,1.496,5.861,3.804,7.595c-2.308,1.733-3.804,4.493-3.804,7.595  c0,1.049,0.85,1.899,1.898,1.899s1.898-0.851,1.898-1.899c0-3.141,2.556-5.695,5.696-5.695c5.312,0,7.379,4.413,7.577,8.784  c-0.005,0.038-0.012,0.075-0.016,0.112c-0.455,4.736-5.695,8.446-11.93,8.446c-6.113,0-10.063-3.577-10.063-9.114V17.721  c0-3.049,0.814-8.165,6.266-8.165c3.425,0,6.51,2.16,7.677,5.375l0.001,0c0.198,0.551,0.603,1.002,1.121,1.263L67.34,16.2  c3.124,1.551,5.064,4.681,5.064,8.167c0,0.792-0.104,1.576-0.303,2.333c-0.018,0.051-0.033,0.103-0.047,0.155  c-1.041,2.23-2.777,3.474-5.656,3.998c-0.541-0.997-1.253-1.896-2.114-2.644c-1.248-1.078-2.764-1.816-4.385-2.139  c-0.006-0.001-0.012-0.003-0.019-0.004c-0.004,0-0.008-0.001-0.012-0.002v0.001c-0.118-0.023-0.239-0.037-0.364-0.037  c-1.048,0-1.898,0.85-1.898,1.899c0,0.924,0.661,1.692,1.535,1.862v0.001c0.984,0.192,1.904,0.639,2.656,1.289  c0.751,0.652,1.32,1.499,1.647,2.447c0.326,0.946,0.398,1.963,0.21,2.938c-0.192,0.984-0.641,1.903-1.295,2.655l0.007,0.005  c-0.29,0.333-0.472,0.764-0.472,1.24c0,1.048,0.851,1.898,1.898,1.898c0.572,0,1.079-0.258,1.427-0.659l0.007,0.005  c1.089-1.253,1.834-2.781,2.155-4.421c0.172-0.89,0.21-1.797,0.125-2.694c3.169-0.675,5.509-2.138,7.077-4.43  c5.058,2.479,8.263,7.567,8.263,13.289c0,0.378-0.015,0.76-0.042,1.133c-0.004,0.056-0.008,0.113-0.008,0.17  c0,0.445,0.129,0.859,0.35,1.21l-0.001,0.001c1.668,2.657,2.549,5.727,2.549,8.879C85.695,59.127,84.017,63.263,80.969,66.398z"></path>
</svg>
