<svg version="1.0" xmlns="http://www.w3.org/2000/svg"
 width="1000.000000pt" height="1000.000000pt" viewBox="0 0 1000.000000 1000.000000"
 preserveAspectRatio="xMidYMid meet">

<g transform="translate(0.000000,1000.000000) scale(0.100000,-0.100000)"
fill="#000000" stroke="none">
<path d="M4335 6404 c-299 -67 -456 -349 -347 -624 43 -109 154 -203 279 -238
80 -22 240 -21 318 2 244 72 391 276 358 500 -24 172 -123 289 -289 345 -85
28 -229 35 -319 15z m60 -74 c108 -74 231 -303 275 -514 26 -119 26 -197 2
-219 -102 -92 -295 91 -397 375 -63 177 -84 348 -47 381 37 33 96 25 167 -23z"/>
<path d="M5435 6409 c-110 -18 -256 -118 -318 -216 -84 -132 -89 -321 -15
-451 68 -117 186 -192 335 -213 97 -14 178 1 278 51 61 31 185 133 174 144 -3
3 -25 -5 -50 -17 -65 -33 -167 -30 -234 6 -163 87 -295 332 -295 547 0 74 2
80 27 100 83 65 250 -72 322 -265 27 -70 32 -179 12 -238 -7 -21 -11 -40 -8
-43 6 -7 217 465 217 486 0 74 -265 139 -445 109z"/>
<path d="M6345 6404 c-167 -37 -306 -162 -354 -318 -48 -155 -9 -320 102 -430
92 -93 197 -131 352 -129 164 1 285 47 384 143 105 102 148 213 137 354 -13
172 -120 307 -291 366 -82 29 -236 35 -330 14z m63 -74 c142 -95 280 -385 299
-630 6 -75 5 -79 -20 -104 -48 -48 -110 -33 -193 46 -138 130 -256 410 -258
611 -1 77 2 90 18 103 36 26 89 17 154 -26z"/>
<path d="M3443 6403 c-294 -3 -362 -9 -305 -27 10 -4 27 -23 38 -44 17 -34 19
-64 22 -342 4 -346 0 -374 -57 -420 l-36 -30 253 0 c161 0 252 4 252 10 0 6
-9 10 -21 10 -29 0 -75 50 -88 96 -6 21 -11 92 -11 156 0 109 1 118 21 129 53
28 151 -35 180 -115 17 -47 32 -46 22 2 -4 20 -7 90 -7 155 -1 64 -4 117 -8
117 -3 0 -11 -15 -17 -33 -13 -39 -54 -81 -94 -96 -41 -16 -84 -14 -91 5 -10
26 -7 351 4 378 13 36 60 34 126 -3 60 -35 180 -160 215 -225 13 -25 27 -46
31 -46 4 0 5 19 2 43 -3 23 -9 96 -12 162 l-7 120 -45 0 c-25 1 -190 -1 -367
-2z"/>
<path d="M4969 4690 c-262 -42 -439 -270 -401 -518 33 -209 180 -342 407 -366
102 -12 261 20 345 68 295 168 322 571 49 746 -96 62 -264 92 -400 70z m2 -61
c145 -72 291 -353 321 -616 11 -98 11 -104 -8 -130 -37 -50 -111 -40 -188 24
-105 88 -218 312 -261 517 -18 85 -19 175 -2 197 32 41 68 43 138 8z"/>
<path d="M3370 4680 c-30 -5 -181 -8 -335 -9 l-280 -1 27 -25 c49 -45 53 -75
53 -405 0 -334 -5 -367 -59 -392 -15 -6 -26 -14 -26 -18 0 -4 53 -5 118 -3 94
4 364 -5 612 -20 l35 -2 6 100 c3 55 10 140 14 189 5 63 4 86 -4 82 -6 -4 -11
-15 -11 -24 0 -27 -80 -142 -133 -193 -106 -101 -240 -153 -251 -96 -13 64
-16 142 -10 263 l7 134 38 0 c49 0 97 -41 130 -110 27 -57 44 -66 35 -17 -8
47 -9 259 -1 280 4 10 3 17 -4 17 -6 0 -16 -12 -22 -27 -27 -71 -95 -127 -147
-121 -26 3 -27 6 -35 83 -10 95 -1 263 15 282 15 18 39 16 93 -7 87 -37 190
-156 256 -295 l23 -50 4 38 c2 21 -1 69 -7 107 -6 38 -11 104 -11 147 0 108
-3 110 -130 93z"/>
<path d="M6639 4679 c-2 -24 -4 -319 -2 -319 1 0 21 39 45 86 47 94 99 161
152 193 45 28 74 27 82 -3 3 -13 4 -171 2 -352 -3 -238 -7 -337 -16 -359 -16
-36 -61 -85 -78 -85 -7 0 -16 -4 -19 -10 -4 -7 85 -10 259 -10 171 0 266 4
266 10 0 6 -10 10 -23 10 -30 0 -75 47 -87 91 -6 19 -10 184 -10 381 l0 348
21 0 c66 0 148 -92 225 -250 l32 -65 -3 169 c-2 92 -6 170 -9 173 -2 3 -55 0
-118 -6 -116 -11 -571 -8 -665 5 -42 5 -53 4 -54 -7z"/>
<path d="M8195 4680 c-27 -5 -173 -9 -322 -9 -150 -1 -273 -4 -273 -9 0 -4 9
-13 20 -20 11 -6 28 -29 37 -50 16 -33 18 -72 18 -347 0 -302 -1 -311 -22
-352 -13 -23 -32 -44 -43 -48 -11 -3 -20 -11 -20 -17 0 -7 38 -8 118 -4 93 4
465 -5 617 -17 l30 -2 6 95 c3 52 9 140 14 194 6 73 5 97 -4 92 -6 -4 -11 -15
-11 -25 0 -28 -67 -132 -123 -188 -67 -69 -158 -124 -213 -131 -42 -4 -43 -4
-49 29 -3 19 -5 113 -3 209 l3 175 37 3 c31 3 42 -2 75 -35 21 -21 49 -60 62
-86 12 -27 24 -47 26 -45 2 2 0 58 -4 125 -5 66 -5 142 -1 167 4 25 4 48 2 51
-3 3 -20 -20 -36 -52 -37 -68 -71 -95 -123 -97 l-38 -1 -7 100 c-13 168 3 275
41 275 4 0 28 -7 53 -16 89 -30 206 -161 266 -297 20 -45 46 -59 35 -19 -2 10
-10 94 -16 187 l-12 170 -45 1 c-25 1 -67 -2 -95 -6z"/>
<path d="M1742 4658 c58 -50 63 -76 66 -386 4 -319 -3 -379 -48 -424 -16 -15
-28 -28 -27 -29 11 -2 198 -8 337 -10 194 -2 241 6 337 53 211 104 298 368
193 584 -70 143 -216 225 -399 224 -55 -1 -56 -1 -26 -14 68 -30 116 -115 146
-260 44 -216 8 -438 -87 -534 -39 -39 -46 -43 -86 -40 l-43 3 -3 414 c-2 325
0 416 10 423 7 4 -68 8 -167 8 -99 0 -191 3 -205 6 l-25 5 27 -23z"/>
<path d="M3823 4673 c-167 -3 -216 -11 -164 -28 11 -3 27 -25 37 -48 16 -37
19 -78 22 -320 4 -326 -2 -375 -55 -424 l-34 -33 251 0 c165 0 249 3 245 10
-3 6 -14 10 -24 10 -23 0 -56 36 -76 83 -13 32 -15 91 -15 385 0 222 4 348 10
350 15 5 12 22 -2 20 -7 -2 -95 -4 -195 -5z"/>
<path d="M4060 4671 c0 -4 11 -13 23 -18 28 -13 60 -77 76 -151 31 -147 -8
-286 -86 -307 -27 -8 -27 -8 12 -16 22 -4 67 -5 100 -2 194 17 294 103 295
253 0 123 -74 203 -210 228 -79 15 -210 23 -210 13z"/>
<path d="M5670 4669 c0 -3 11 -12 25 -19 48 -26 55 -75 55 -399 0 -172 -4
-312 -10 -333 -7 -23 -25 -49 -48 -68 l-37 -30 238 0 c216 0 280 7 213 24 -17
4 -30 19 -43 53 -16 43 -18 83 -18 398 0 193 4 357 8 366 7 14 -11 16 -187 15
-108 -1 -196 -4 -196 -7z"/>
<path d="M6142 4649 c27 -21 42 -45 53 -81 18 -60 20 -176 4 -232 -12 -44 -61
-96 -89 -96 -11 0 -21 -4 -24 -9 -5 -8 52 -121 102 -201 43 -69 144 -160 217
-195 74 -37 223 -80 234 -69 3 4 0 9 -7 12 -63 22 -135 145 -178 302 -39 141
-31 134 -133 127 -47 -3 -97 -2 -111 3 -21 7 -19 8 17 9 93 2 202 40 259 89
34 29 54 77 54 129 -1 97 -65 179 -164 208 -50 15 -192 35 -246 35 -23 0 -23
-1 12 -31z"/>
<path d="M4422 3384 c-23 -16 -29 -34 -11 -34 18 0 79 32 79 41 0 15 -44 10
-68 -7z"/>
<path d="M4759 3302 c-12 -31 -69 -195 -69 -199 0 -2 15 -3 34 -3 26 0 36 5
41 20 5 15 15 20 45 20 29 0 39 -4 43 -20 4 -15 14 -20 36 -20 17 0 31 5 31
10 0 15 -61 193 -70 203 -3 4 -23 10 -43 12 -34 4 -39 2 -48 -23z m63 -82 c4
-24 1 -30 -14 -30 -19 0 -22 11 -12 47 8 30 21 21 26 -17z"/>
<path d="M5473 3323 c-22 -4 -23 -8 -23 -114 l0 -109 48 0 c64 0 113 26 136
73 16 34 17 42 5 74 -8 20 -25 44 -39 54 -26 18 -88 29 -127 22z m81 -59 c11
-4 16 -19 16 -50 0 -37 -4 -46 -22 -53 -33 -12 -38 -6 -38 48 0 60 7 69 44 55z"/>
<path d="M8802 3313 c-15 -14 -82 -182 -82 -208 0 -3 13 -5 30 -5 19 0 33 7
40 20 8 14 21 20 45 20 24 0 37 -6 45 -20 11 -20 70 -30 70 -11 0 23 -70 205
-82 212 -21 14 -44 10 -66 -8z m48 -100 c0 -15 -6 -23 -16 -23 -12 0 -15 6
-10 23 3 12 6 29 6 37 1 25 20 -11 20 -37z"/>
<path d="M1070 3210 c0 -109 0 -110 24 -110 25 0 36 16 36 55 0 18 7 25 33 30
43 10 67 32 67 64 0 49 -34 71 -109 71 l-51 0 0 -110z m100 45 c0 -8 -9 -15
-20 -15 -20 0 -26 11 -13 23 12 13 33 7 33 -8z"/>
<path d="M1502 3308 c-26 -13 -39 -54 -25 -77 5 -9 27 -25 48 -36 47 -25 42
-41 -12 -37 -38 3 -43 0 -43 -18 0 -53 138 -42 156 12 8 26 -19 64 -61 84 -47
22 -44 36 7 32 35 -2 43 0 46 16 2 10 -2 22 -10 27 -18 12 -78 10 -106 -3z"/>
<path d="M1878 3304 c-1 -9 -2 -59 0 -111 l3 -94 27 3 27 3 0 105 0 105 -27 3
c-18 2 -27 -2 -30 -14z"/>
<path d="M2237 3300 c-51 -40 -58 -121 -15 -167 40 -43 138 -38 138 7 0 16 -5
19 -29 14 -45 -9 -71 10 -71 54 0 48 14 62 61 62 44 0 60 17 34 37 -28 20 -88
16 -118 -7z"/>
<path d="M2639 3291 c-24 -25 -29 -37 -29 -81 0 -40 5 -56 24 -75 68 -68 196
-22 196 71 0 75 -41 114 -120 114 -33 0 -48 -6 -71 -29z m105 -27 c19 -7 22
-84 4 -102 -32 -32 -72 -1 -72 55 0 44 27 63 68 47z"/>
<path d="M3080 3210 l0 -111 78 3 c69 3 77 5 77 23 0 16 -8 21 -42 23 l-43 3
0 85 0 84 -35 0 -35 0 0 -110z"/>
<path d="M3524 3309 c-35 -17 -57 -66 -51 -111 13 -94 125 -131 193 -63 19 19
24 34 24 75 0 44 -5 56 -29 81 -24 23 -38 29 -73 28 -24 0 -52 -5 -64 -10z
m100 -70 c20 -57 -18 -104 -64 -79 -23 12 -28 78 -8 98 21 21 62 10 72 -19z"/>
<path d="M3971 3291 c-26 -25 -31 -36 -31 -78 0 -79 61 -125 143 -108 48 11
57 23 57 77 0 53 -4 57 -65 61 -35 2 -40 -1 -43 -20 -2 -17 3 -24 21 -28 18
-5 23 -12 20 -26 -11 -42 -67 -8 -65 40 1 46 18 61 68 61 37 0 44 3 44 19 0
23 -19 31 -75 31 -34 0 -50 -6 -74 -29z"/>
<path d="M4392 3213 l3 -108 33 -3 32 -3 0 110 0 111 -35 0 -36 0 3 -107z"/>
<path d="M5900 3210 l0 -111 68 3 c64 3 67 4 67 28 0 20 -5 24 -30 25 -41 0
-48 32 -8 37 22 2 28 8 28 28 0 21 -6 26 -35 31 -36 6 -27 15 20 21 17 2 26
10 28 26 3 21 0 22 -67 22 l-71 0 0 -110z"/>
<path d="M6282 3213 l3 -108 30 0 c27 0 30 3 33 38 2 27 8 37 20 37 9 0 32 9
50 20 25 15 32 27 32 50 0 50 -30 70 -105 70 l-66 0 3 -107z m96 39 c2 -7 -3
-12 -12 -12 -9 0 -16 7 -16 16 0 17 22 14 28 -4z"/>
<path d="M6719 3291 c-24 -24 -29 -38 -29 -76 0 -57 12 -80 50 -100 53 -28
120 -11 154 37 18 26 21 90 6 119 -15 28 -63 49 -110 49 -33 0 -48 -6 -71 -29z
m105 -27 c25 -10 22 -90 -4 -104 -27 -14 -56 2 -64 36 -12 44 1 65 46 73 3 0
13 -2 22 -5z"/>
<path d="M7167 3313 c-4 -3 -7 -53 -7 -110 l0 -103 35 0 c34 0 35 1 35 40 0
22 3 40 8 40 4 -1 19 -19 34 -40 20 -29 35 -40 53 -40 32 0 32 14 -1 57 -24
32 -25 36 -10 52 24 26 20 77 -6 95 -23 16 -128 23 -141 9z m91 -60 c-5 -25
-28 -28 -28 -4 0 12 6 21 16 21 9 0 14 -7 12 -17z"/>
<path d="M7573 3304 c-7 -18 4 -31 32 -36 18 -3 20 -12 23 -86 l3 -82 29 0 29
0 3 82 c3 78 4 82 28 88 16 4 26 14 28 28 3 21 0 22 -83 22 -68 0 -87 -3 -92
-16z"/>
<path d="M7990 3210 l0 -110 30 0 30 0 0 110 0 110 -30 0 -30 0 0 -110z"/>
<path d="M8290 3307 c0 -16 42 -139 60 -179 11 -22 20 -28 46 -28 31 0 33 3
60 73 14 39 33 87 40 105 15 37 6 47 -37 40 -18 -2 -26 -14 -37 -53 -8 -27
-17 -57 -19 -65 -3 -8 -14 15 -26 53 -19 65 -21 67 -53 67 -22 0 -34 -5 -34
-13z"/>
</g>
</svg>
